<?xml version="1.0" standalone="no"?>
<!DOCTYPE svg PUBLIC "-//W3C//DTD SVG 20010904//EN"
 "http://www.w3.org/TR/2001/REC-SVG-20010904/DTD/svg10.dtd">
<svg version="1.0" xmlns="http://www.w3.org/2000/svg"
 width="700.000000pt" height="700.000000pt" viewBox="0 0 700.000000 700.000000"
 preserveAspectRatio="xMidYMid meet">
<metadata>
Created by potrace 1.14, written by Peter Selinger 2001-2017
</metadata>
<g transform="translate(0.000000,700.000000) scale(0.100000,-0.100000)"
fill="#000000" stroke="none">
<path d="M2087 4787 c-16 -11 -72 -157 -250 -642 -36 -99 -183 -502 -327 -895
-143 -393 -276 -747 -294 -786 -57 -122 -134 -189 -228 -199 -24 -3 -60 -7
-82 -9 -39 -4 -62 -24 -47 -39 5 -5 44 -9 88 -9 43 0 179 0 303 1 124 0 246
-1 272 -2 26 -2 57 1 68 5 25 9 27 38 3 39 -89 4 -144 24 -163 58 -16 31 -12
92 14 187 31 117 213 653 231 680 13 20 19 21 383 20 297 -1 372 -4 385 -15
10 -7 17 -18 17 -23 0 -4 70 -193 155 -417 85 -225 155 -420 155 -434 0 -16
-10 -33 -27 -45 -21 -15 -25 -24 -17 -32 15 -15 77 -19 391 -21 216 -2 274 0
287 11 24 19 6 31 -52 35 -157 11 -250 86 -341 280 -44 91 -235 578 -571 1455
-277 723 -298 775 -319 795 -14 12 -21 12 -34 2z m-19 -534 c147 -411 322
-912 322 -925 0 -4 -148 -8 -330 -8 -285 0 -330 2 -330 15 0 13 33 117 238
743 37 114 71 202 78 202 7 0 16 -12 22 -27z"/>
<path d="M3611 4734 c-26 -20 -2 -33 74 -39 93 -7 154 -37 179 -90 16 -31 21
-69 25 -180 8 -191 5 -1834 -3 -1915 -20 -201 -46 -240 -174 -254 -44 -4 -69
-23 -53 -39 5 -5 67 -8 137 -7 151 3 266 3 501 0 94 -1 176 1 182 5 17 10 13
35 -6 36 -10 0 -29 2 -43 4 -14 2 -55 6 -92 10 -58 6 -71 11 -102 41 -22 22
-38 48 -42 72 -4 20 -8 46 -10 57 -16 87 -27 808 -12 837 7 15 30 16 230 13
l223 -3 28 -34 c15 -18 80 -105 144 -193 256 -351 430 -573 522 -665 156 -155
234 -181 546 -182 260 -1 265 0 272 17 9 24 0 27 -79 31 -93 5 -176 28 -258
72 -109 57 -197 137 -363 332 -113 132 -95 111 -272 335 -82 105 -154 195
-160 202 -25 30 -110 144 -118 160 -4 6 28 47 73 94 156 163 253 325 295 494
82 331 -56 614 -357 735 -144 57 -201 62 -762 64 -386 1 -512 -1 -525 -10z
m1004 -129 c259 -86 390 -320 380 -675 -9 -299 -141 -505 -345 -535 -55 -9
-238 -9 -277 -1 -15 3 -44 8 -63 12 -50 8 -51 9 -93 23 -21 7 -42 22 -45 32
-4 10 -6 148 -5 306 1 159 2 413 2 565 l1 277 23 7 c40 13 140 20 243 18 77
-2 119 -8 179 -29z"/>
</g>
</svg>
